<svg width="186" height="93" viewBox="0 0 186 93" fill="none" xmlns="http://www.w3.org/2000/svg">
<path d="M122.587 63.0403C123.109 63.1199 123.73 63.0663 124.131 63.4747C124.182 63.5418 124.215 63.6205 124.227 63.7037C124.24 63.7869 124.231 63.8718 124.202 63.9509C124.173 64.0299 124.125 64.1005 124.062 64.1561C123.999 64.2118 123.923 64.2508 123.841 64.2696C123.429 64.3506 123.007 64.2696 122.595 64.2377C122.587 63.8352 122.587 63.4341 122.587 63.0403Z" fill="white"/>
<path d="M122.593 60.9547C123.008 61.0358 123.473 61.0257 123.835 61.2762C123.89 61.3646 123.926 61.464 123.939 61.5675C123.952 61.6709 123.943 61.776 123.912 61.8756C123.521 62.1463 123.03 62.0204 122.591 62.0117C122.588 61.6584 122.589 61.3061 122.593 60.9547Z" fill="white"/>
<path d="M128.771 61.645C129.205 61.7376 129.692 61.7376 130.074 62.0026C130.397 62.2241 130.433 62.7801 130.089 63.0016C129.701 63.2681 129.204 63.0769 128.774 63.0596C128.771 62.5875 128.771 62.1155 128.771 61.645Z" fill="white"/>
<path d="M61.4128 60.7636C61.8371 60.7361 62.2816 60.6188 62.7 60.7636C63.0634 60.9388 63.0475 61.4876 62.7883 61.7424C62.4408 62.1217 61.8776 62.0855 61.4128 62.1768C61.4119 61.7038 61.4119 61.2327 61.4128 60.7636Z" fill="white"/>
<path d="M85.7944 0.0580778C90.7506 -0.0128448 95.7097 -0.0316606 100.666 0.075447C102.156 0.191239 103.651 0.143475 105.141 0.250582C129.583 1.3535 153.894 5.78255 177.111 13.5232C179.707 14.4304 181.959 16.1186 183.557 18.3561C185.112 20.5576 186.019 23.2382 186 25.9434C186 39.6454 186 53.3475 186 67.0496C185.991 70.0514 184.95 72.9589 183.05 75.2838C181.424 77.2919 179.247 78.7811 176.785 79.5681C152.34 87.645 126.851 92.1258 101.116 92.8697C99.2339 92.9985 97.3516 92.9537 95.4693 92.9653C93.8283 93.0116 92.1874 93.0116 90.5464 92.9653C88.7394 92.9522 86.9267 92.9971 85.1269 92.8842C60.243 92.1772 35.5813 87.9843 11.8628 80.4279C10.2585 79.8865 8.59632 79.4711 7.0847 78.6765C3.04794 76.5966 0.252029 72.308 0.020364 67.7718C-0.0172816 66.8078 0.0102294 65.8424 0.00298984 64.877C0.00298984 51.8504 0.00298984 38.8238 0.00298984 25.7972C0.00298984 20.9788 2.96396 16.3486 7.26859 14.218C8.2995 13.681 9.42307 13.3626 10.5206 12.9906C29.0303 6.97408 48.1472 3.01565 67.5247 1.18705C73.6059 0.593616 79.6958 0.263609 85.7944 0.0580778ZM79.0023 14.9735C76.6378 16.2096 74.7367 18.2027 73.3366 20.4491C71.8467 22.9096 71.2299 25.7654 70.8172 28.5733C70.1121 33.7116 70.3221 39.0974 72.2232 43.9722C73.1194 46.2171 74.2995 48.449 76.2049 50.0021C80.1678 53.3441 86.3214 53.6206 90.6333 50.7895C91.9364 49.8834 92.9775 48.6488 93.8332 47.3244C95.0595 45.4804 95.743 43.3325 96.1151 41.1657C96.2222 40.484 96.3945 39.8051 96.3815 39.1118C96.3945 38.8224 96.228 38.4591 95.895 38.4446C94.9814 38.3809 94.0663 38.4808 93.1527 38.4692C92.7863 38.5256 92.2839 38.3968 92.0392 38.7384C91.8047 39.3651 91.8278 40.0526 91.6961 40.704C91.3573 42.5595 90.5826 44.418 89.1709 45.7163C87.9865 46.8134 86.2606 47.3693 84.6694 46.9871C82.9478 46.5732 81.4927 45.3718 80.5472 43.8998C79.5597 42.3815 79.1427 40.5882 78.7938 38.8339C78.0646 34.961 78.0533 30.987 78.7605 27.11C79.1094 25.1821 79.7986 23.2874 80.9323 21.6822C81.7924 20.4997 82.9594 19.4373 84.4203 19.103C85.9971 18.7136 87.7071 19.2738 88.8567 20.3926C90.2496 21.759 91.004 23.6116 91.6077 25.4296C91.7395 25.7668 91.8119 26.1533 92.0769 26.4181C92.7067 26.5745 93.3641 26.4543 94.0055 26.4587C94.4804 26.4152 95.019 26.4731 95.4346 26.2097C95.617 25.9202 95.5895 25.5526 95.6054 25.2226C95.5967 22.4725 95.6054 19.7225 95.6054 16.9724C95.6054 15.8463 95.8081 14.6855 95.4606 13.5913C94.6368 13.7461 94.2704 14.5581 93.713 15.0821C93.1932 15.6104 92.4794 16.0822 91.7033 15.9404C90.668 15.7334 89.8833 14.962 88.9436 14.535C85.8277 13.0051 82.0211 13.3742 79.0023 14.9735ZM98.4042 14.0559C98.7459 14.6971 99.2599 15.221 99.6436 15.8362C100.327 16.9261 100.851 18.152 100.887 19.4634C100.98 23.3612 101.003 27.2591 101.005 31.1569C100.899 33.9591 101.094 36.7598 101.005 39.5605C100.967 41.9762 100.984 44.3977 100.763 46.8048C100.694 47.7926 100.387 48.7492 99.868 49.5925C99.4337 50.3596 98.6764 50.8951 98.3014 51.7042C98.6889 51.8503 99.0948 51.9419 99.5075 51.9763C102.594 52.2542 105.693 52.3671 108.774 52.6566C109.508 52.6783 110.286 52.9128 110.979 52.5683C109.715 51.0399 108.528 49.2625 108.48 47.2129C108.447 45.2372 108.38 43.2601 108.399 41.2786C108.359 40.5462 108.861 39.9759 109.243 39.397C109.808 38.6052 110.307 37.7629 110.962 37.0377C111.556 38.2868 111.975 39.6112 112.542 40.8704C113.399 42.8241 114.139 44.8276 114.757 46.8699C115.01 47.7499 115.481 48.5966 115.472 49.5317C115.339 50.5854 114.525 51.3742 113.791 52.0704C113.59 52.2875 113.273 52.4815 113.3 52.8173C113.923 53.1067 114.628 53.0489 115.294 53.1067C117.957 53.2833 120.615 53.499 123.278 53.6683C124.5 53.7291 125.726 53.9679 126.95 53.8001C126.567 53.017 125.835 52.5061 125.296 51.8417C124.465 50.9038 123.953 49.7459 123.486 48.5966C122.888 47.1102 122.328 45.6063 121.701 44.1314C119.713 39.6011 118.1 34.9216 116.279 30.3247C116.168 30.0808 116.104 29.818 116.092 29.5503C116.237 29.09 116.541 28.705 116.781 28.2925C117.984 26.2502 119.439 24.3744 120.763 22.4132C121.905 20.6242 123.007 18.7093 124.797 17.4819C125.321 17.0708 126.004 16.8682 126.446 16.3558L126.417 15.9867C125.631 15.7566 124.794 15.8188 123.987 15.7189C121.381 15.5959 118.766 15.4049 116.169 15.1603C115.857 15.1603 115.42 15.0343 115.232 15.3672C115.614 16.0909 116.292 16.6438 116.562 17.4414C116.891 18.2577 116.662 19.1782 116.241 19.9121C115.372 21.4347 114.504 22.9704 113.49 24.399C111.907 26.615 110.488 28.9395 109.014 31.2249C108.852 31.4592 108.673 31.6808 108.477 31.8879C108.377 30.3826 108.477 28.8715 108.412 27.3647C108.315 25.1725 108.356 22.9763 108.534 20.7892C108.609 19.9208 108.663 19.0234 108.98 18.1954C109.301 17.2865 109.888 16.502 110.552 15.813C110.732 15.5742 111.069 15.305 110.927 14.9721C110.638 14.7941 110.286 14.7796 109.959 14.7376C106.918 14.4641 103.877 14.3656 100.837 14.0689C100.024 14.0211 99.2064 13.8923 98.4013 14.0559H98.4042ZM53.8405 15.9115C52.4909 16.0829 51.1772 16.4679 49.9485 17.052C46.9441 18.4734 44.6 21.0541 43.1434 24.0111C42.0242 26.3269 41.1351 28.7745 40.6979 31.3147C39.9832 36.0392 40.2001 40.8579 41.3364 45.4992C41.9662 47.996 43.1694 50.3958 45.0488 52.1876C46.5083 53.6539 48.379 54.7524 50.4394 55.0824C53.1354 55.5398 55.9299 54.8292 58.2682 53.4686C60.7022 52.0646 62.6438 49.8993 63.9469 47.4243C65.1351 45.136 65.9815 42.6861 66.459 40.1525C66.9557 37.3807 67.0382 34.5467 66.8717 31.7402C66.6574 28.5284 66.1651 25.2646 64.7447 22.3437C63.7312 20.2233 62.2558 18.2418 60.1939 17.0506C58.2986 15.9158 56.0037 15.6553 53.8405 15.9115ZM143.421 19.7355C142.842 21.7112 141.52 23.3815 139.984 24.7174C139.313 25.3673 138.471 25.8638 137.993 26.6888C139.053 27.5457 140.505 27.3517 141.731 27.77C142.073 27.9292 142.009 28.3765 142.046 28.6862C142.046 30.2335 142.064 31.7808 142.014 33.3266C142.014 37.0416 142.014 40.7566 142.014 44.4716C141.947 46.8887 142.037 49.3175 141.724 51.723C141.553 52.9041 140.993 53.9942 140.131 54.8205C139.815 55.1042 139.573 55.461 139.426 55.8597C140.15 56.1738 140.951 56.2823 141.727 56.4387C143.822 56.8396 145.935 57.1479 148.028 57.5575C149.271 57.7515 150.49 58.1365 151.764 58.1148C151.534 57.5966 151.185 57.1435 150.872 56.6804C150.235 55.7328 149.767 54.6818 149.489 53.5743C149.276 52.6769 149.327 51.7505 149.294 50.8372C149.221 47.8483 149.266 44.858 149.255 41.8633C149.224 38.6284 149.388 35.3949 149.281 32.1658C149.174 28.1623 149.362 24.1558 149.272 20.1523C149.278 20.0976 149.273 20.0422 149.256 19.9898C149.239 19.9373 149.211 19.889 149.175 19.848C149.138 19.807 149.093 19.7743 149.042 19.7519C148.992 19.7295 148.938 19.718 148.883 19.7181C147.339 19.4286 145.794 19.1551 144.249 18.9076C143.748 18.8005 143.53 19.3447 143.421 19.7355ZM154.215 20.9542C154.043 21.7893 154.215 22.6462 154.176 23.49C154.127 25.1792 154.123 26.8683 154.176 28.5559C154.169 28.6661 154.187 28.7764 154.227 28.8792C154.267 28.9819 154.329 29.0747 154.409 29.1508C154.897 29.106 155.278 28.7687 155.688 28.5357C156.689 27.9294 157.872 27.6966 159.028 27.8786C162.274 28.3128 165.425 29.2362 168.605 29.9932C168.959 30.0569 169.443 30.2552 169.344 30.7097C169.007 33.0255 167.982 35.185 166.8 37.1868C165.428 39.5316 163.556 41.5391 162.234 43.9158C161.025 45.9059 160.244 48.1132 159.496 50.3031C158.595 52.991 158.193 55.8235 158.112 58.6503C158.068 59.0845 158.243 59.5896 158.711 59.7025C160.929 60.3944 163.249 60.6955 165.479 61.3497C165.813 61.4293 166.32 61.629 166.521 61.218C166.674 60.6723 166.579 60.0948 166.572 59.5375C166.459 56.8779 166.849 54.2207 167.721 51.7057C168.513 49.4217 169.275 47.1145 170.375 44.9564C171.204 43.3325 171.89 41.6419 172.624 39.9745C173.42 38.1681 174.111 36.3039 174.453 34.3528C174.98 31.6852 174.913 28.954 174.875 26.2473C174.865 25.7929 174.441 25.5121 174.031 25.4397C170.833 24.6595 167.613 23.9691 164.422 23.16C161.268 22.3842 158.129 21.5418 154.961 20.8326C154.738 20.8442 154.298 20.6734 154.215 20.9542ZM22.0488 22.6173C19.8972 23.0688 17.792 23.7057 15.6418 24.1645C14.1071 24.5293 12.552 24.8405 11.0607 25.3615C11.1649 26.0302 11.7672 26.3935 12.1698 26.8755C12.8429 27.6734 13.2548 28.6586 13.3498 29.6979C13.6162 32.1585 13.5467 34.6191 13.6191 37.0898C13.6582 40.1294 13.5192 43.1689 13.6191 46.2084C13.6191 49.2972 13.5771 52.3859 13.5409 55.4718C13.4989 56.5631 13.5786 57.6776 13.2817 58.7429C12.9377 59.9616 12.3878 61.1124 11.6557 62.1458C11.4463 62.4495 11.266 62.7722 11.1171 63.1097C12.2204 63.1097 13.2615 62.6972 14.3271 62.4656C17.4894 61.6146 20.6979 60.9763 23.8746 60.1585C25.9857 59.594 28.1489 58.9875 29.9558 57.6979C32.1002 56.1912 33.6784 53.9911 34.7151 51.6058C35.6592 49.4796 36.163 47.1898 36.5293 44.9014C37.1375 41.0238 37.1983 37.0724 36.8783 33.163C36.6568 30.4969 36.163 27.7903 34.9019 25.4035C33.9767 23.6304 32.3203 22.183 30.3294 21.7488C27.5465 21.1018 24.7463 21.992 22.0488 22.6173ZM81.7924 58.1871C81.762 59.7402 81.7924 61.2947 81.7736 62.8478C81.7736 63.1575 81.7489 63.4788 81.8517 63.7784C82.2195 63.8001 82.5902 63.7784 82.9608 63.7654C82.9927 63.0909 82.9869 62.415 82.9883 61.739H83.5313C83.9251 62.3716 84.2292 63.0634 84.6723 63.6641C85.1312 63.7075 85.5932 63.7075 86.0521 63.6641C85.6477 62.9365 85.2365 62.2128 84.8185 61.493C85.2717 61.1051 85.7206 60.6245 85.7336 59.9862C85.7857 59.6084 85.6993 59.2244 85.4904 58.9052C85.2815 58.586 84.9642 58.353 84.597 58.2494C83.6819 58.0163 82.7277 58.1683 81.7924 58.1871ZM88.0908 58.0424C88.0792 59.9081 88.0908 61.7752 88.0908 63.6409C89.2491 63.6843 90.4074 63.6308 91.5657 63.6047C91.5657 63.2226 91.5657 62.8405 91.5657 62.4584C90.8085 62.4439 90.0527 62.4584 89.2983 62.4468C89.2983 62.0512 89.2983 61.657 89.2983 61.2643C89.8891 61.2643 90.4798 61.2643 91.0706 61.2455C91.0706 60.8865 91.0706 60.5218 91.0488 60.1701C90.4697 60.1701 89.8804 60.1701 89.2969 60.1701C89.2969 59.8487 89.2969 59.5289 89.2969 59.209C90.0324 59.209 90.7694 59.209 91.5064 59.1902C91.5064 58.8254 91.5209 58.4665 91.4847 58.0988C90.3582 57.9497 89.2158 58.0699 88.085 58.0453L88.0908 58.0424ZM93.5653 58.0294C93.9302 59.9023 94.2893 61.7781 94.6759 63.6482C95.1204 63.6482 95.5663 63.6655 96.0137 63.6757C96.2801 62.6871 96.5147 61.6898 96.7826 60.7027C97.0606 61.7014 97.2937 62.7117 97.5557 63.7147C98.0031 63.7147 98.4505 63.7147 98.8994 63.7147C99.273 61.8592 99.6538 60.0051 100.007 58.1451C99.5987 58.1394 99.1909 58.1321 98.7836 58.1234C98.5476 59.2379 98.3651 60.364 98.1552 61.4843C97.8656 60.3626 97.6079 59.2307 97.3313 58.1061C96.9693 58.0887 96.6074 58.0742 96.2468 58.0655C95.9573 59.1931 95.7039 60.3264 95.423 61.4554C95.2135 60.3177 95.0065 59.1796 94.8018 58.0409C94.3892 58.038 93.9765 58.0351 93.5653 58.0322V58.0294ZM102.941 58.4404C102.034 58.8341 101.856 60.1686 102.532 60.8489C103.061 61.3975 103.85 61.5436 104.452 61.9865C104.742 62.1704 104.717 62.6813 104.354 62.7479C103.741 62.9534 103.158 62.5771 102.648 62.2818C102.4 62.5713 102.156 62.8608 101.924 63.1503C102.421 63.5121 102.945 63.8899 103.572 63.9782C104.199 64.0665 104.875 64.0332 105.367 63.6207C106.084 63.0258 106.091 61.7984 105.405 61.1774C104.772 60.5913 103.83 60.4755 103.272 59.7894C103.469 59.6649 103.644 59.4565 103.893 59.4377C104.328 59.3798 104.692 59.6823 105.052 59.8806C105.317 59.6186 105.58 59.3537 105.839 59.086C105.104 58.3333 103.922 57.9338 102.941 58.4433V58.4404ZM75.5751 58.4679C75.5374 60.3307 75.5751 62.1921 75.5591 64.0549C76.4091 64.0129 77.272 64.0462 78.1118 63.8769C78.927 63.7234 79.6712 62.9997 79.6306 62.1313C79.6784 61.6363 79.3411 61.2426 79.0515 60.8967C79.4641 60.2135 79.5206 59.1786 78.7822 58.6952C77.8048 58.1176 76.632 58.465 75.5751 58.4708V58.4679ZM111.886 59.442C111.519 59.9501 111.648 60.5999 111.855 61.1413C111.502 61.5885 111.194 62.1269 111.295 62.7218C111.386 63.8899 112.569 64.7931 113.722 64.5803C114.551 64.5094 115.088 63.7596 115.243 62.9968L115.773 63.0316C115.773 62.6437 115.773 62.2558 115.773 61.8736C115.194 61.8143 114.615 61.7651 114.036 61.7289C113.966 62.2196 114.127 62.813 113.781 63.2212C113.281 63.7292 112.304 63.1112 112.543 62.4352C112.666 61.9272 113.277 61.9735 113.683 61.9069C113.683 61.5581 113.683 61.2107 113.683 60.8648C113.332 60.7794 112.986 60.652 112.804 60.3177L113.189 59.9298C113.451 60.1012 113.648 60.3562 113.746 60.6535C114.113 60.6897 114.479 60.7186 114.85 60.7403C114.774 60.2468 114.725 59.6968 114.346 59.3306C113.713 58.6025 112.41 58.6098 111.886 59.4449V59.442ZM67.3176 59.1641C66.4735 59.5477 66.0623 60.6998 66.5676 61.4959C67.073 62.2196 68.0633 62.1819 68.7395 62.6538C68.99 62.8289 68.8843 63.2501 68.615 63.35C68.0358 63.6814 67.3973 63.3645 66.8514 63.1329C66.6198 63.4557 66.3837 63.777 66.1637 64.1099C67.0628 64.7554 68.3355 64.9508 69.3056 64.3386C70.1251 63.8537 70.4075 62.6335 69.824 61.8679C69.2144 61.1528 68.1183 61.2498 67.4957 60.5478C67.7173 60.3655 67.9301 60.1136 68.2443 60.1006C68.6179 60.0586 68.948 60.2757 69.2825 60.4103C69.5431 60.1122 69.8095 59.8183 70.0658 59.5158C69.31 58.8703 68.2023 58.6763 67.3176 59.1641ZM60.2316 59.8516C60.178 61.7043 60.1997 63.5628 60.2316 65.4183C60.6107 65.3872 60.9862 65.3223 61.3537 65.2244C61.4985 64.5933 61.3856 63.9217 61.4145 63.2733L61.9416 63.2053C62.3224 63.8233 62.6974 64.4457 63.0565 65.0782C63.5227 65.0406 63.9875 64.9923 64.4508 64.9335C64.0512 64.2373 63.6414 63.5468 63.2288 62.8593C63.9846 62.292 64.4146 61.2339 63.9759 60.3423C63.6153 59.636 62.7321 59.526 62.0226 59.5969C61.4305 59.6707 60.8006 59.6418 60.2316 59.8516ZM121.4 59.6707C121.38 61.5306 121.375 63.392 121.4 65.2519C122.261 65.3575 123.126 65.5414 123.996 65.482C124.695 65.4429 125.39 64.9031 125.409 64.1692C125.508 63.5903 125.188 63.088 124.852 62.6567C125.286 61.9518 125.248 60.9444 124.562 60.4074C123.676 59.704 122.466 59.8154 121.4 59.6707ZM54.4631 60.5145C54.4414 62.3831 54.4458 64.2532 54.4631 66.1232C55.6215 65.9712 56.7943 65.854 57.9482 65.6369C57.9541 65.2673 57.9396 64.8976 57.9048 64.5296C57.149 64.5441 56.4048 64.7033 55.6548 64.7844C55.6548 64.3907 55.6548 63.998 55.6548 63.6062C56.2339 63.5367 56.8131 63.4614 57.3922 63.376C57.3922 63.0142 57.3922 62.6523 57.385 62.2905C56.8058 62.3527 56.2339 62.4352 55.6576 62.4989C55.6576 62.1795 55.6576 61.8601 55.6576 61.5407C56.3888 61.4438 57.1215 61.3584 57.8483 61.2353C57.8353 60.8518 57.8266 60.4697 57.815 60.0861C56.69 60.2034 55.5795 60.3785 54.4631 60.5145ZM127.582 60.3886C127.571 62.2616 127.569 64.1345 127.582 66.0074C127.966 66.0537 128.351 66.1044 128.741 66.142C128.765 65.4777 128.781 64.8148 128.776 64.1519L129.304 64.2445C129.707 64.9378 129.983 65.7093 130.462 66.3562C130.885 66.501 131.344 66.501 131.786 66.5632C131.409 65.7614 130.985 64.9856 130.583 64.1982C130.9 63.9434 131.266 63.6916 131.389 63.2805C131.538 62.8557 131.531 62.3916 131.368 61.9717C131.206 61.5518 130.899 61.2035 130.503 60.9893C129.596 60.5261 128.551 60.5594 127.575 60.3944L127.582 60.3886ZM48.3472 61.9113C47.5508 62.7797 47.3669 64.0534 47.5812 65.1737C47.7043 65.8974 48.1778 66.598 48.8959 66.8339C49.3359 66.95 49.7992 66.944 50.2359 66.8164C50.6727 66.6889 51.0664 66.4447 51.3747 66.1102C52.0813 65.3474 52.2 64.2619 52.1769 63.2689C51.3429 63.3717 50.5132 63.5121 49.685 63.6511C49.6763 64.01 49.6763 64.3748 49.685 64.7279C50.1194 64.6758 50.5422 64.6179 50.9722 64.5629C50.7753 64.961 50.6016 65.4502 50.1426 65.6123C49.95 65.7076 49.7296 65.7308 49.5214 65.6777C49.3131 65.6246 49.1308 65.4987 49.0074 65.3228C48.6614 64.8104 48.6527 64.149 48.7569 63.5628C48.8612 62.9766 49.2796 62.3947 49.9037 62.2992C50.2903 62.1906 50.6276 62.4714 50.9592 62.622C51.2741 62.3368 51.5733 62.0349 51.8554 61.7173C51.5094 61.4597 51.1619 61.1615 50.7232 61.0906C50.29 61.016 49.8451 61.0522 49.4296 61.1956C49.0142 61.3391 48.6419 61.5853 48.3472 61.9113ZM133.706 61.2498C133.685 62.263 133.695 63.2762 133.691 64.2995C133.691 64.9552 133.758 65.6427 134.101 66.2187C134.638 67.1422 135.879 67.5359 136.874 67.2001C137.563 66.9338 137.818 66.1362 137.854 65.4632C137.873 64.2763 137.864 63.0866 137.854 61.8997C137.457 61.8375 137.059 61.7969 136.664 61.7463C136.622 63.0316 136.791 64.3342 136.588 65.6094C136.506 66.1884 135.786 66.1695 135.388 65.9408C135.003 65.7411 134.938 65.262 134.907 64.8756C134.877 63.7321 134.922 62.5872 134.887 61.4423C134.49 61.37 134.098 61.3063 133.706 61.2498ZM41.5652 62.6017C41.529 64.4717 41.5536 66.3447 41.5753 68.2162C41.9614 68.1467 42.3446 68.0729 42.7249 67.9947C42.7365 67.3318 42.7336 66.6674 42.7351 66.0045C42.919 65.9712 43.1028 65.9394 43.2882 65.909C43.6559 66.488 43.9716 67.1075 44.3857 67.6575C44.8476 67.6705 45.2979 67.546 45.7482 67.4577C45.3601 66.7832 44.9489 66.1232 44.5421 65.4603C45.2182 64.8813 45.6888 63.9174 45.3485 63.0345C45.1458 62.4555 44.4972 62.2066 43.9267 62.2326C43.1289 62.2673 42.3514 62.4743 41.5652 62.6017ZM140.321 62.3223C140.259 64.1953 140.268 66.0711 140.311 67.9455C140.699 67.999 141.084 68.0671 141.469 68.1134C141.485 67.051 141.469 65.9886 141.484 64.9291C142.015 65.9857 142.52 67.0568 143.062 68.1134C143.263 68.6533 143.931 68.5476 144.393 68.6663C144.417 66.7992 144.401 64.932 144.401 63.0649C144.016 62.9867 143.631 62.9201 143.243 62.8463C143.223 63.9333 143.243 65.0174 143.204 66.1116C142.735 65.0029 142.172 63.9405 141.636 62.8622C141.435 62.3267 140.769 62.4483 140.321 62.3223ZM38.0048 63.3283C37.8151 64.6078 38.0786 65.9206 37.8716 67.2015C37.8035 67.7892 37.1389 68.109 36.6046 67.9802C36.2354 67.8355 36.2166 67.381 36.1905 67.0481C36.1616 65.9249 36.2094 64.8003 36.1674 63.6771C35.7763 63.732 35.3911 63.8221 35.0163 63.9463C34.9251 64.9334 35.0004 65.9307 34.9786 66.9222C34.9946 67.669 35.0539 68.5737 35.7286 69.0368C36.4396 69.4537 37.3518 69.2366 38.0135 68.8226C38.8026 68.3334 39.1124 67.3636 39.137 66.4793C39.1602 65.3474 39.1457 64.2141 39.137 63.0822C38.7527 63.1284 38.3736 63.2108 38.0048 63.3283ZM146.789 65.0767C146.608 65.6531 146.558 66.2625 146.641 66.8608C146.725 67.4591 146.941 68.0313 147.273 68.536C147.537 68.9128 147.889 69.219 148.3 69.4274C148.71 69.6359 149.165 69.7404 149.625 69.7316C150.136 69.7113 150.549 69.3813 150.928 69.0788C150.668 68.7647 150.396 68.4622 150.118 68.1655C149.747 68.3464 149.342 68.6113 148.919 68.4275C148.092 68.1988 147.778 67.2507 147.797 66.4778C147.797 65.9437 147.941 65.2316 148.535 65.0724C149.129 64.9132 149.631 65.3619 150.053 65.7165C150.304 65.4907 150.558 65.2649 150.808 65.0362C150.262 64.369 149.505 63.8045 148.605 63.819C147.784 63.7133 147.015 64.3024 146.789 65.0767ZM152.928 64.7699C152.841 66.6327 152.861 68.5042 152.928 70.367C153.278 70.4916 153.642 70.5728 154.011 70.6087C154.156 69.8445 154.044 69.0571 154.081 68.2842C154.674 68.4145 155.268 68.552 155.864 68.6793C155.864 69.4653 155.864 70.2526 155.872 71.0386C156.26 71.1254 156.651 71.2079 157.043 71.2817C157.056 69.4218 157.052 67.5605 157.043 65.7006C156.651 65.605 156.261 65.5168 155.87 65.4343C155.87 66.1444 155.862 66.8551 155.844 67.5663C155.256 67.4317 154.667 67.3029 154.079 67.174C154.079 66.4605 154.079 65.7469 154.068 65.0333C153.688 64.9392 153.307 64.8538 152.928 64.7699ZM28.9973 65.304C28.9293 67.1567 28.9771 69.0166 28.9771 70.8736C29.8154 70.6753 30.6784 70.5566 31.4819 70.2353C32.3391 69.8894 33.0211 69.005 32.911 68.0512C32.9023 67.6546 32.5896 67.3738 32.3579 67.0886C32.5997 66.5401 32.8024 65.8772 32.481 65.317C32.1596 64.7873 31.4544 64.7381 30.9028 64.8365C30.255 64.9352 29.6173 65.0917 28.9973 65.304ZM54.896 75.7122C53.9187 76.3679 53.8825 77.9369 54.618 78.788C55.2566 79.4769 56.3917 79.2873 56.9695 78.6157C56.7972 78.4493 56.622 78.2857 56.4468 78.1251C56.0848 78.3016 55.6605 78.6012 55.274 78.3031C55.0457 78.0564 54.9142 77.7355 54.9038 77.3996C54.8935 77.0637 55.0049 76.7353 55.2175 76.475C55.5534 76.1247 56.0283 76.3853 56.3845 76.5546C56.5525 76.3708 56.7219 76.1855 56.8869 76.0003C56.3469 75.5371 55.5404 75.3099 54.896 75.7122ZM58.2262 75.5921C58.219 76.7761 58.2132 77.9601 58.2262 79.1455C58.9256 79.1527 59.6249 79.1542 60.3228 79.1759C60.3228 78.9197 60.3228 78.6664 60.3329 78.4131C59.8826 78.4131 59.4323 78.403 58.9835 78.3899C58.9835 77.4578 58.9835 76.5257 58.9835 75.595L58.2262 75.5921ZM62.6424 75.5921C62.2558 76.7833 61.8547 77.9687 61.5115 79.173C61.7837 79.1571 62.0588 79.144 62.334 79.131C62.4136 78.8632 62.4932 78.5984 62.5743 78.3335L63.5516 78.3436C63.6356 78.6128 63.7225 78.8849 63.8108 79.1556C64.0801 79.1556 64.3494 79.1643 64.6202 79.1643C64.2669 77.9615 63.8629 76.7746 63.4865 75.5791L62.6424 75.5921ZM65.8611 75.5921C65.8611 76.7819 65.8538 77.9716 65.8611 79.1614C66.1144 79.1614 66.3693 79.1527 66.6255 79.1426C66.6255 78.6838 66.6255 78.2249 66.6473 77.7676C67.2264 78.0209 67.335 78.6939 67.7187 79.1325C68.0075 79.1588 68.2975 79.1694 68.5875 79.1643C68.3428 78.691 68.0807 78.2278 67.8215 77.7632C68.3341 77.3406 68.6222 76.5402 68.1487 75.9815C67.5594 75.3678 66.614 75.6471 65.8553 75.5921H65.8611ZM69.8819 75.5921C69.8515 76.7819 69.8819 77.9731 69.8703 79.1628C70.1183 79.1654 70.3663 79.1543 70.6131 79.1296C70.671 78.7069 70.6667 78.2785 70.7086 77.8544C71.1112 78.2423 71.4109 78.7228 71.8091 79.1093C72.1204 79.215 72.465 79.1382 72.7893 79.1498C72.3129 78.5115 71.8177 77.8877 71.3226 77.2682C71.7569 76.7114 72.1884 76.1527 72.617 75.5921C72.2936 75.5921 71.9717 75.5955 71.6512 75.6022C71.3192 76.0355 70.9857 76.4668 70.6507 76.8962C70.6507 76.462 70.6507 76.0278 70.6507 75.5936L69.8819 75.5921ZM73.8911 77.0554C74.2401 77.6344 75.1161 77.5779 75.4317 78.1801C75.0886 78.6534 74.5022 78.3002 74.0837 78.1598C73.9293 78.3528 73.7768 78.5458 73.6262 78.7388C74.2329 79.1382 75.0611 79.4292 75.73 79.0036C76.328 78.6562 76.3714 77.6793 75.7995 77.2899C75.4042 77.0178 74.9307 76.8803 74.5485 76.5923C74.7483 76.0755 75.3115 76.3766 75.6663 76.5213L76.1861 75.9872C75.7054 75.6341 75.0915 75.3374 74.4949 75.5834C73.8825 75.7513 73.5856 76.5184 73.8854 77.0569L73.8911 77.0554ZM77.3705 75.5993C77.7382 76.7978 78.1176 77.9919 78.4969 79.1889C78.7605 79.1821 79.0234 79.1609 79.2846 79.1252C79.7363 77.9745 80.0317 76.766 80.4299 75.595H79.6017C79.3642 76.3752 79.1326 77.1582 78.8966 77.9398C78.6678 77.1553 78.4318 76.3752 78.1958 75.5936C77.9163 75.5921 77.6412 75.5921 77.3705 75.5993ZM81.7475 75.5704C81.7475 76.7616 81.7475 77.9528 81.7475 79.144C82.0038 79.1542 82.2615 79.1643 82.5207 79.1672C82.5323 77.9789 82.5207 76.7906 82.5207 75.6022L81.7475 75.5704ZM84.1597 75.5907C84.1597 76.7746 84.1597 77.9586 84.1597 79.144C84.8677 79.1542 85.5772 79.1571 86.2867 79.1614C86.2867 78.911 86.2867 78.662 86.2867 78.4145C85.8407 78.4145 85.3948 78.4044 84.9503 78.3943C84.9503 77.4607 84.9503 76.5271 84.9503 75.5936L84.1597 75.5907ZM87.6506 75.5921C87.6448 76.7741 87.6448 77.9562 87.6506 79.1382C88.3601 79.1498 89.0696 79.1556 89.779 79.1657C89.779 78.9139 89.779 78.662 89.7921 78.4116C89.3461 78.4116 88.9001 78.4015 88.4542 78.3972C88.4542 77.4622 88.4542 76.5271 88.4542 75.5921H87.6506ZM91.1574 75.5921C91.1516 76.7751 91.1516 77.9576 91.1574 79.1397C91.9066 79.1889 92.6583 79.1889 93.4075 79.1397C93.4075 78.8965 93.4075 78.6563 93.4075 78.416C92.9239 78.3972 92.4417 78.3914 91.9596 78.3827C91.9596 78.1439 91.9596 77.9051 91.9596 77.6677C92.3331 77.6677 92.7082 77.6677 93.0846 77.6677C93.0846 77.4289 93.0846 77.1915 93.0846 76.9541C92.7096 76.9425 92.336 76.9367 91.9625 76.9324C91.9625 76.7877 91.9625 76.5112 91.9625 76.3723C92.4345 76.3549 92.908 76.3505 93.38 76.323C93.38 76.0828 93.38 75.8439 93.38 75.5993C92.6367 75.5945 91.8968 75.5921 91.1603 75.5921H91.1574ZM97.3834 75.5921L97.3747 76.3288C97.6643 76.3356 97.9568 76.3457 98.2522 76.3592C98.2522 77.2971 98.2421 78.2409 98.2609 79.1744C98.5229 79.1744 98.7865 79.1614 99.05 79.1513C99.0616 78.2047 99.05 77.2581 99.0601 76.3115C99.3497 76.3115 99.6393 76.3332 99.9202 76.3419C99.9202 76.0828 99.9202 75.8251 99.9202 75.5675C99.076 75.5646 98.2305 75.5921 97.3849 75.5921H97.3834ZM101.293 75.5921C101.287 76.7751 101.287 77.9576 101.293 79.1397C102.042 79.1853 102.794 79.1824 103.543 79.131C103.543 78.8893 103.543 78.6476 103.543 78.4073C103.048 78.3885 102.552 78.3827 102.059 78.3755C102.059 78.1381 102.059 77.9022 102.059 77.6662C102.429 77.6474 102.819 77.7082 103.179 77.591C103.211 77.3753 103.224 77.1568 103.243 76.944C102.848 76.9266 102.453 76.9208 102.057 76.9165V76.3563C102.531 76.339 103.004 76.3375 103.478 76.3144C103.478 76.0712 103.468 75.8295 103.465 75.5907C102.743 75.5916 102.02 75.5921 101.296 75.5921H101.293ZM104.984 75.5921C104.984 76.7891 104.969 77.9876 104.984 79.1846C105.231 79.1744 105.483 79.1715 105.732 79.144C105.833 78.484 105.771 77.8139 105.78 77.151C106.114 77.7401 106.404 78.3552 106.764 78.9313C106.929 79.2743 107.358 79.1136 107.662 79.1542C107.662 77.9673 107.662 76.7804 107.662 75.5936C107.407 75.5791 107.155 75.5675 106.903 75.5603C106.903 76.2478 106.903 76.9353 106.903 77.6243C106.536 76.9449 106.159 76.2676 105.773 75.5921H104.984ZM109.291 75.5921C109.291 76.7819 109.282 77.9702 109.291 79.16C109.543 79.1672 109.796 79.1744 110.051 79.1788C110.061 78.4941 110.051 77.8095 110.063 77.1249C110.438 77.8023 110.808 78.4811 111.189 79.1513L111.97 79.1397C111.97 77.9586 111.97 76.7775 111.97 75.5979C111.703 75.5805 111.437 75.5661 111.173 75.5588C111.163 76.2246 111.173 76.889 111.173 77.5548C110.811 76.9006 110.449 76.2521 110.087 75.5921H109.291ZM113.6 75.5921C113.594 76.7751 113.594 77.9576 113.6 79.1397C114.346 79.1874 115.095 79.1874 115.841 79.1397C115.841 78.898 115.841 78.6563 115.841 78.416C115.349 78.3972 114.857 78.3899 114.366 78.3798C114.366 78.141 114.366 77.9036 114.366 77.6662H115.487C115.487 77.4216 115.487 77.1785 115.487 76.9425C115.115 76.9425 114.741 76.9425 114.372 76.9425C114.372 76.7978 114.372 76.517 114.364 76.3751C114.835 76.3592 115.306 76.3578 115.778 76.3361C115.778 76.0915 115.778 75.8497 115.778 75.6124C115.052 75.5921 114.328 75.5921 113.603 75.5921H113.6ZM117.292 77.0771C117.654 77.5837 118.349 77.6387 118.797 78.0469C118.682 78.704 117.86 78.319 117.464 78.1497C117.32 78.3451 117.165 78.5419 117.017 78.7402C117.596 79.1527 118.381 79.4031 119.044 79.0528C119.673 78.7402 119.783 77.74 119.214 77.316C118.76 77.012 118.21 76.8542 117.837 76.4359C118.031 76.3527 118.243 76.318 118.454 76.3349C118.665 76.3518 118.868 76.4197 119.047 76.5329L119.567 75.9945C119.098 75.6515 118.511 75.3475 117.922 75.5603C117.768 75.6012 117.626 75.677 117.506 75.7819C117.387 75.8868 117.293 76.0179 117.232 76.165C117.171 76.312 117.146 76.4711 117.156 76.6299C117.167 76.7886 117.215 76.9426 117.295 77.08L117.292 77.0771ZM121.571 75.6297C120.874 75.8729 120.721 76.9556 121.361 77.3478C121.795 77.6865 122.555 77.7096 122.626 78.3769C122.158 78.4378 121.683 78.3598 121.259 78.1526C121.115 78.3465 120.97 78.5434 120.816 78.7402C121.396 79.144 122.157 79.3959 122.826 79.0659C123.482 78.7605 123.595 77.7169 122.995 77.3044C122.561 77.0149 122.08 76.8412 121.655 76.5561C122.007 76.1986 122.464 76.3201 122.861 76.5286C123.027 76.3505 123.195 76.1711 123.365 75.993C122.867 75.6066 122.188 75.3243 121.574 75.6341L121.571 75.6297ZM124.782 75.5907C124.776 76.7737 124.776 77.9562 124.782 79.1382C125.53 79.1874 126.281 79.1874 127.029 79.1382C127.029 78.8951 127.029 78.6534 127.029 78.4145C126.546 78.3957 126.062 78.3914 125.581 78.387C125.581 78.1453 125.581 77.9065 125.581 77.6633H126.704C126.704 77.4216 126.704 77.1799 126.704 76.9396C126.33 76.9396 125.958 76.9295 125.587 76.9281C125.587 76.7384 125.587 76.5503 125.587 76.3636C126.059 76.3476 126.533 76.3433 127.005 76.3173C127.005 76.077 127.005 75.8367 127.005 75.5936C126.263 75.5926 125.524 75.5921 124.785 75.5921L124.782 75.5907ZM128.482 75.5921C128.482 76.7751 128.482 77.9581 128.482 79.1411C129.23 79.186 129.981 79.1831 130.729 79.1325C130.729 78.8893 130.729 78.649 130.729 78.4088C130.245 78.3899 129.763 78.3856 129.281 78.374C129.281 78.1352 129.281 77.8964 129.281 77.6604H130.409C130.4 77.4173 130.394 77.1756 130.39 76.9367C130.021 76.9367 129.652 76.9367 129.285 76.9367C129.285 76.7471 129.276 76.559 129.276 76.3723C129.747 76.3534 130.219 76.352 130.691 76.3288C130.691 76.0857 130.691 75.8454 130.691 75.6051C129.956 75.5965 129.219 75.5921 128.482 75.5921ZM95.2261 76.7992C95.1364 76.8279 95.0548 76.8774 94.9879 76.9436C94.921 77.0098 94.8708 77.0909 94.8413 77.1803C94.8118 77.2696 94.8038 77.3647 94.8181 77.4577C94.8324 77.5507 94.8685 77.639 94.9234 77.7154C95.1826 78.1222 95.9225 77.9615 95.9761 77.4766C95.9941 77.3775 95.9865 77.2754 95.954 77.18C95.9215 77.0846 95.8651 76.999 95.7903 76.9315C95.7155 76.8639 95.6247 76.8166 95.5264 76.794C95.4282 76.7713 95.3258 76.7741 95.229 76.8021L95.2261 76.7992Z" fill="white"/>
<path d="M53.5347 21.1147C53.9877 21.0408 54.4518 21.0777 54.8873 21.2224C55.3228 21.3671 55.7167 21.6153 56.0353 21.9455C57.001 22.9081 57.4832 24.2238 57.8538 25.5091C59.17 30.3564 59.1874 35.4643 58.5474 40.4173C58.2969 42.3944 57.877 44.3643 57.0995 46.2069C56.6086 47.3547 55.9223 48.4692 54.8972 49.2102C54.14 49.7718 53.0685 49.9455 52.2142 49.4997C51.2876 49.0467 50.7185 48.1334 50.2378 47.2606C48.8927 44.7479 48.4569 41.869 48.289 39.0582C48.1572 36.3646 48.1847 33.6507 48.6133 30.9817C48.984 28.6977 49.3676 26.3746 50.3421 24.2556C50.7692 23.3408 51.2297 22.3827 52.0593 21.7646C52.4914 21.4321 52.9977 21.2091 53.5347 21.1147Z" fill="white"/>
<path d="M23.5745 27.4805C24.4635 27.3126 25.4409 27.2475 26.2734 27.6687C27.2189 28.1405 27.882 29.0234 28.3323 29.9555C28.9564 31.2799 29.2112 32.7389 29.4081 34.1791C29.9873 38.362 29.8888 42.6174 29.3314 46.796C29.0346 49.0192 28.2773 51.2454 26.8091 52.9735C25.4857 54.5049 23.4008 55.0173 21.475 55.2575C20.8235 55.3097 20.7656 54.5034 20.7511 54.0345C20.7801 51.7577 20.6425 49.481 20.7757 47.2057C20.8293 46.2967 20.7294 45.3877 20.7496 44.4788C20.7772 39.2681 20.7033 34.0575 20.7178 28.8468C20.6917 28.5371 20.7916 28.1767 21.1319 28.0913C21.9355 27.838 22.7593 27.6672 23.5745 27.4805Z" fill="white"/>
<path d="M82.9879 59.2249C83.4874 59.2799 84.1462 59.0945 84.5024 59.5477C84.5922 59.7953 84.6153 60.1269 84.3953 60.3137C84.0376 60.6974 83.4599 60.6033 82.9893 60.6655C82.9835 60.1848 82.985 59.7041 82.9879 59.2249Z" fill="white"/>
<path d="M76.7909 59.5651C77.2803 59.5868 78.1997 59.345 78.1577 60.1196C77.9144 60.6351 77.247 60.5424 76.7778 60.622C76.7822 60.2688 76.7909 59.9169 76.7909 59.5651Z" fill="white"/>
<path d="M76.791 61.6363C77.3195 61.6363 77.9493 61.477 78.3837 61.8578C78.4735 62.0866 78.4474 62.3935 78.2302 62.5441C77.8248 62.8583 77.2761 62.7888 76.7954 62.8337C76.7925 62.434 76.791 62.0349 76.791 61.6363Z" fill="white"/>
<path d="M42.7324 63.5005C43.1668 63.4325 43.6127 63.3137 44.0544 63.3977C44.3729 63.599 44.3584 64.0927 44.1253 64.3533C43.7937 64.7718 43.216 64.7877 42.7397 64.9007C42.7339 64.433 42.7324 63.9668 42.7324 63.5005Z" fill="white"/>
<path d="M30.1395 66.1652C30.5551 66.0899 30.9721 66.0204 31.392 65.9727C31.4021 66.1985 31.5368 66.4678 31.3789 66.6705C31.0676 67.0253 30.5696 67.0847 30.1424 67.2179C30.1381 66.866 30.1381 66.5156 30.1395 66.1652Z" fill="white"/>
<path d="M30.1411 68.2393C30.5754 68.1539 31.0098 68.0062 31.4543 68.0468C31.77 68.0945 31.8351 68.4811 31.673 68.7128C31.3559 69.2427 30.6725 69.2847 30.1382 69.4367C30.1362 69.04 30.1372 68.6409 30.1411 68.2393Z" fill="white"/>
<path d="M66.6276 76.2392C67.0236 76.265 67.4086 76.3798 67.7541 76.5751C67.5832 77.0761 67.1011 77.2006 66.6305 77.2281C66.6257 76.898 66.6247 76.5684 66.6276 76.2392Z" fill="white"/>
<path d="M62.7676 77.6492C62.8617 77.3321 62.9573 77.015 63.0572 76.7008C63.1571 77.015 63.2541 77.3321 63.3467 77.6492H62.7676Z" fill="white"/>
</svg>
